<?xml version="1.0" encoding="UTF-8"?>
<!DOCTYPE svg PUBLIC "-//W3C//DTD SVG 1.1//EN" "http://www.w3.org/Graphics/SVG/1.1/DTD/svg11.dtd">
<svg width="100%" height="100%" viewBox="0 0 400 400" version="1.1" xmlns="http://www.w3.org/2000/svg" xmlns:xlink="http://www.w3.org/1999/xlink" xml:space="preserve" xmlns:serif="http://www.serif.com/" style="fill-rule:evenodd;clip-rule:evenodd;stroke-linejoin:round;stroke-miterlimit:1.41421;">
  <rect id="ArtBoard1" x="0" y="0" width="400" height="400" style="fill:none;"/>
  <clipPath id="_clip1">
    <rect id="ArtBoard11" serif:id="ArtBoard1" x="0" y="0" width="400" height="400"/>
  </clipPath>
  <g clip-path="url(#_clip1)">
    <g id="icon-facebook">
      <path d="M2,0c-1.1,0 -2,0.9 -2,2l0,20c0,1.101 0.9,2 2,2l9.84,0l0,-9.17l-2.92,0l0.16,-4.019l2.76,0l0,-2.901c0,0 -0.38,-3.92 3.96,-3.92c4.35,0 3.31,0.04 3.31,0.04l0,3.73l-2.13,0.171c0,0 -1,-0.5 -1,0.319l0,2.64l3.76,0l-0.89,4.02l-2.92,0l0.01,9.09l6.06,0c1.1,0 2,-0.899 2,-2l0,-20c0,-1.1 -0.9,-2 -2,-2l-20,0Z"/>
    </g>
    <g id="icon-twitter">
      <path d="M47.5,4.37c-0.85,0.399 -1.76,0.67 -2.71,0.79c0.97,-0.62 1.72,-1.61 2.07,-2.79c-0.91,0.58 -1.92,1 -2.99,1.23c-0.86,-0.99 -2.09,-1.6 -3.45,-1.6c-2.6,0 -4.71,2.26 -4.71,5.05c0,0.4 0.04,0.78 0.12,1.15c-3.92,-0.21 -7.4,-2.22 -9.73,-5.269c-0.4,0.739 -0.64,1.609 -0.64,2.529c0,1.76 0.84,3.3 2.1,4.21c-0.77,-0.03 -1.5,-0.26 -2.14,-0.64l0,0.07c0,2.44 1.63,4.48 3.79,4.95c-0.4,0.11 -0.81,0.17 -1.24,0.17c-0.31,0 -0.6,-0.031 -0.89,-0.09c0.6,2.01 2.34,3.47 4.41,3.51c-1.62,1.35 -3.65,2.16 -5.86,2.16c-0.39,0 -0.76,-0.02 -1.13,-0.07c2.09,1.43 4.57,2.27 7.23,2.27c8.68,0 13.43,-7.69 13.43,-14.36l-0.01,-0.66c0.92,-0.711 1.72,-1.6 2.35,-2.61" style="fill-rule:nonzero;"/>
    </g>
    <g id="icon-instagram">
      <path d="M53.858,12.128c0,3.368 2.749,6.1 6.141,6.1c3.391,0 6.14,-2.732 6.14,-6.1c0,-1.147 -0.334,-2.211 -0.889,-3.128l6.764,0l0,10.285c0,2.605 -2.125,4.715 -4.747,4.715l-14.506,0c-2.621,0 -4.746,-2.11 -4.746,-4.715l0,-10.285l6.733,0c-0.556,0.917 -0.89,1.981 -0.89,3.128m6.156,-3.473c-1.93,0 -3.496,1.555 -3.496,3.473c0,1.918 1.566,3.473 3.496,3.473c1.931,0 3.497,-1.555 3.497,-3.473c0,-1.918 -1.566,-3.473 -3.497,-3.473m-0.015,8.172c-2.609,0 -4.731,-2.108 -4.731,-4.699c0,-1.407 0.626,-2.67 1.615,-3.532c0.348,-0.303 0.739,-0.555 1.164,-0.747c0.596,-0.269 1.256,-0.42 1.952,-0.42c0.695,0 1.356,0.151 1.951,0.42c0.426,0.192 0.817,0.444 1.164,0.747c0.989,0.862 1.616,2.125 1.616,3.532c0,2.591 -2.122,4.699 -4.731,4.699m6.015,-11.827c0,0.553 0.448,1 1,1l2,0c0.552,0 1,-0.447 1,-1l0,-2c0,-0.552 -0.448,-1 -1,-1l-2,0c-0.552,0 -1,0.448 -1,1l0,2Zm-6.015,1.028c-1.713,0 -3.261,0.698 -4.375,1.821l-7.609,0l0,-3.097c0,-1.589 -0.214,-2.897 0.999,-3.752l0,5l1,0l0,-6c0.221,-0.088 0.765,0.055 1,0l0,6l1,0l0,-6l1,0l0,6l1,0l0,-6l14,0c2.622,0 4,2.149 4,4.752l0,3.097l-7.64,0c-1.114,-1.123 -2.662,-1.821 -4.375,-1.821"/>
    </g>
    <g id="icon-youtube">
      <path d="M90.2,1.985c-2.91,0 -5.311,2.13 -5.72,4.9l-0.19,0c-0.41,-2.77 -2.82,-4.9 -5.73,-4.9c-3.201,0 -5.791,2.58 -5.791,5.74c0,3.15 2.541,5.699 5.701,5.75l0.18,0l0,1.96l-6.65,-1.79l0,7.64l6.65,-1.981l0,2.681l9.76,0l-2.86,-8.51l4.65,0c3.2,0 5.8,-2.57 5.8,-5.75c0,-3.16 -2.6,-5.74 -5.8,-5.74m-11.64,7.37c-0.91,0 -1.64,-0.73 -1.64,-1.63c0,-0.889 0.73,-1.62 1.64,-1.62c0.9,0 1.629,0.731 1.629,1.62c0,0.9 -0.729,1.63 -1.629,1.63m11.759,0c-0.899,0 -1.63,-0.73 -1.63,-1.63c0,-0.889 0.731,-1.62 1.63,-1.62c0.911,0 1.641,0.731 1.641,1.62c0,0.9 -0.73,1.63 -1.641,1.63" style="fill-rule:nonzero;"/>
    </g>
  </g>
</svg>
